<?xml version="1.0" standalone="no"?><!DOCTYPE svg PUBLIC "-//W3C//DTD SVG 1.1//EN" "http://www.w3.org/Graphics/SVG/1.1/DTD/svg11.dtd"><svg height="1024" node-id="1" sillyvg="true" template-height="1024" template-width="1024" version="1.1" viewBox="0 0 1024 1024" width="1024" xmlns="http://www.w3.org/2000/svg" xmlns:xlink="http://www.w3.org/1999/xlink"><defs node-id="31"><linearGradient gradientUnits="objectBoundingBox" id="paint0_linear_926_1095" node-id="12" spreadMethod="pad" x1="499.398" x2="499.398" y1="666.593" y2="1014"><stop offset="0" stop-color="#ff908a"></stop><stop offset="1" stop-color="#ffffff" stop-opacity="0"></stop></linearGradient><linearGradient gradientUnits="objectBoundingBox" id="paint1_linear_926_1095" node-id="15" spreadMethod="pad" x1="310.186" x2="310.186" y1="9" y2="251.509"><stop offset="0" stop-color="#ff463c"></stop><stop offset="1" stop-color="#ffffff" stop-opacity="0"></stop></linearGradient><linearGradient gradientUnits="objectBoundingBox" id="paint2_linear_926_1095" node-id="18" spreadMethod="pad" x1="927.453" x2="927.453" y1="325.389" y2="450.684"><stop offset="0" stop-color="#ff463c"></stop><stop offset="1" stop-color="#ffffff" stop-opacity="0"></stop></linearGradient><linearGradient gradientUnits="objectBoundingBox" id="paint3_linear_926_1095" node-id="21" spreadMethod="pad" x1="176.806" x2="37.2222" y1="281.963" y2="337.796"><stop offset="0" stop-color="#ffffff" stop-opacity="0.74"></stop><stop offset="1" stop-color="#ffbcbc"></stop></linearGradient><linearGradient gradientUnits="objectBoundingBox" id="paint4_linear_926_1095" node-id="24" spreadMethod="pad" x1="508.704" x2="508.704" y1="356.407" y2="753.444"><stop offset="0.157107" stop-color="#ffe6e6"></stop><stop offset="1" stop-color="#ff8780"></stop></linearGradient><linearGradient gradientUnits="objectBoundingBox" id="paint5_linear_926_1095" node-id="27" spreadMethod="pad" x1="508.704" x2="508.704" y1="381.222" y2="592.148"><stop offset="0" stop-color="#ffe6e6"></stop><stop offset="1" stop-color="#ff463c"></stop></linearGradient></defs><path d="M 930.60 840.30 L 927.70 846.70 L 924.20 853.30 L 920.10 860.10 L 915.10 867.10 L 909.40 874.30 L 903.60 881.00 L 897.10 887.70 L 889.90 894.60 L 881.90 901.50 L 873.20 908.60 L 855.20 921.70 L 845.10 928.20 L 822.80 941.20 L 799.50 953.10 L 773.40 964.50 L 745.40 975.10 L 715.80 984.50 L 683.60 993.10 L 667.40 996.80 L 650.60 1000.20 L 633.30 1003.30 L 615.30 1006.00 L 596.60 1008.40 L 578.30 1010.40 L 559.50 1011.90 L 540.00 1013.00 L 520.00 1013.70 L 499.40 1014.00 L 479.50 1013.70 L 460.00 1012.90 L 440.80 1011.60 L 422.10 1009.80 L 403.30 1007.50 L 384.90 1004.80 L 367.10 1001.60 L 349.70 998.20 L 332.20 994.20 L 315.30 990.00 L 299.00 985.50 L 267.30 975.50 L 237.60 964.60 L 209.70 952.80 L 196.40 946.70 L 172.20 934.40 L 149.40 921.40 L 129.90 908.80 L 120.40 902.10 L 112.00 895.60 L 97.70 883.50 L 91.00 877.00 L 85.40 871.00 L 80.70 865.40 L 76.80 860.10 L 73.90 855.50 L 71.60 851.20 L 70.00 847.20 L 68.90 843.60 L 68.20 840.30 L 68.50 834.40 L 69.20 828.50 L 70.40 822.70 L 72.10 816.90 L 74.30 811.10 L 77.00 805.30 L 80.70 798.80 L 84.90 792.30 L 89.90 785.70 L 95.60 779.20 L 102.10 772.70 L 108.70 766.70 L 115.90 760.80 L 123.90 754.90 L 132.50 749.00 L 141.90 743.20 L 153.50 736.60 L 166.20 730.10 L 179.80 723.70 L 194.50 717.50 L 209.10 711.80 L 224.60 706.40 L 241.00 701.20 L 258.30 696.30 L 275.50 691.80 L 293.40 687.70 L 312.10 683.80 L 331.60 680.20 L 350.90 677.20 L 370.80 674.50 L 391.30 672.10 L 412.50 670.10 L 433.50 668.60 L 455.00 667.50 L 477.00 666.80 L 499.40 666.60 L 521.80 666.80 L 543.80 667.50 L 565.30 668.60 L 586.30 670.10 L 607.50 672.10 L 628.00 674.50 L 647.90 677.20 L 667.20 680.20 L 686.70 683.80 L 705.40 687.70 L 723.30 691.80 L 740.50 696.30 L 757.80 701.20 L 774.20 706.40 L 789.70 711.80 L 804.30 717.50 L 819.00 723.70 L 832.60 730.10 L 845.30 736.60 L 856.90 743.20 L 866.30 749.00 L 874.90 754.90 L 882.80 760.80 L 890.10 766.70 L 896.70 772.70 L 903.20 779.20 L 908.90 785.70 L 913.80 792.30 L 918.10 798.80 L 921.80 805.30 L 924.50 811.10 L 926.70 816.90 L 928.40 822.70 L 929.60 828.50 L 930.30 834.40 L 930.60 840.30 Z" fill="url(#paint0_linear_926_1095)" fill-rule="nonzero" node-id="70" stroke="none" target-height="347.40002" target-width="862.39996" target-x="68.2" target-y="666.6"></path><path d="M 439.50 95.70 L 438.40 88.40 L 436.90 81.40 L 434.90 74.60 L 432.30 68.00 L 429.30 61.60 L 425.80 55.50 L 421.90 49.70 L 417.60 44.20 L 412.90 39.00 L 407.80 34.10 L 402.40 29.60 L 396.60 25.50 L 390.50 21.80 L 384.20 18.60 L 377.60 15.70 L 370.70 13.30 L 363.60 11.50 L 356.40 10.10 L 348.90 9.30 L 341.20 9.00 L 334.50 9.20 L 328.00 9.90 L 321.70 10.90 L 315.50 12.30 L 309.50 14.10 L 302.10 16.80 L 295.10 20.10 L 288.40 23.90 L 282.00 28.10 L 276.00 32.90 L 270.40 38.10 L 265.30 43.60 L 260.60 49.60 L 256.30 55.90 L 252.60 62.50 L 249.50 69.40 L 246.80 76.70 L 235.20 77.00 L 225.50 77.80 L 216.10 79.20 L 207.00 81.10 L 198.00 83.60 L 189.40 86.50 L 181.40 89.80 L 173.70 93.50 L 166.30 97.80 L 159.40 102.40 L 153.20 107.30 L 147.50 112.50 L 143.20 117.00 L 139.30 121.70 L 135.90 126.40 L 132.90 131.40 L 130.30 136.50 L 128.10 141.80 L 126.30 147.20 L 125.10 152.70 L 124.40 158.30 L 124.10 164.10 L 124.40 169.90 L 125.10 175.50 L 126.30 181.00 L 128.10 186.40 L 130.30 191.70 L 132.90 196.80 L 135.90 201.70 L 139.30 206.50 L 143.20 211.20 L 147.50 215.70 L 153.20 220.90 L 159.40 225.80 L 166.30 230.40 L 173.70 234.60 L 181.40 238.40 L 189.40 241.70 L 198.00 244.60 L 207.00 247.10 L 216.10 249.00 L 225.50 250.30 L 235.20 251.20 L 245.30 251.50 L 254.00 251.30 L 262.40 250.70 L 270.50 249.60 L 278.50 248.20 L 286.40 246.40 L 293.90 244.20 L 301.20 241.70 L 308.10 238.90 L 314.90 235.70 L 321.30 232.20 L 327.30 228.50 L 333.00 224.50 L 339.50 228.00 L 346.40 231.10 L 353.80 233.80 L 361.60 236.10 L 369.40 237.80 L 377.60 239.10 L 386.00 239.90 L 394.80 240.20 L 403.20 240.00 L 411.40 239.20 L 419.30 238.00 L 426.90 236.30 L 434.40 234.20 L 441.60 231.70 L 448.30 228.80 L 454.70 225.50 L 461.00 221.80 L 466.70 217.80 L 471.90 213.60 L 476.70 209.10 L 481.20 204.10 L 485.00 199.00 L 488.30 193.70 L 491.10 188.20 L 493.00 183.50 L 494.40 178.80 L 495.40 174.10 L 496.10 169.10 L 496.30 164.10 L 496.00 158.50 L 495.20 153.00 L 493.90 147.70 L 492.20 142.50 L 489.90 137.50 L 487.20 132.60 L 484.10 127.90 L 480.50 123.30 L 476.60 119.00 L 472.30 114.90 L 467.60 111.10 L 462.50 107.40 L 451.70 101.00 L 439.50 95.70 Z" fill="url(#paint1_linear_926_1095)" fill-rule="evenodd" node-id="72" stroke="none" target-height="242.5" target-width="372.19998" target-x="124.1" target-y="9"></path><path d="M 994.20 370.20 L 993.50 365.50 L 992.40 361.00 L 990.90 356.70 L 989.00 352.60 L 986.70 348.60 L 984.10 345.00 L 981.20 341.50 L 977.90 338.40 L 974.30 335.50 L 970.60 333.00 L 966.50 330.70 L 962.30 328.90 L 957.80 327.40 L 953.20 326.30 L 948.50 325.60 L 943.50 325.40 L 937.80 325.70 L 932.30 326.60 L 927.10 328.00 L 922.00 330.00 L 917.30 332.40 L 912.90 335.30 L 908.80 338.60 L 905.10 342.30 L 901.80 346.40 L 899.00 350.70 L 896.60 355.40 L 894.70 360.40 L 887.40 360.60 L 881.20 361.30 L 875.20 362.40 L 869.60 363.90 L 863.90 365.90 L 858.80 368.10 L 854.00 370.70 L 849.60 373.60 L 845.50 376.90 L 841.90 380.40 L 838.80 384.00 L 836.20 387.90 L 834.10 392.10 L 832.60 396.40 L 831.60 400.90 L 831.30 405.50 L 831.60 410.20 L 832.60 414.60 L 834.10 418.90 L 836.20 423.10 L 838.80 427.00 L 841.90 430.70 L 845.50 434.20 L 849.60 437.50 L 854.00 440.30 L 858.80 442.90 L 863.90 445.20 L 869.60 447.10 L 875.20 448.60 L 881.20 449.70 L 887.40 450.40 L 893.90 450.70 L 899.90 450.50 L 911.10 449.00 L 921.60 446.10 L 931.00 441.90 L 939.20 436.70 L 943.80 439.10 L 948.70 441.10 L 954.00 442.70 L 959.40 443.90 L 965.20 444.60 L 971.20 444.90 L 976.60 444.60 L 986.80 443.10 L 996.30 440.10 L 1004.60 435.80 L 1008.20 433.30 L 1011.70 430.50 L 1014.70 427.40 L 1017.30 424.20 L 1019.50 420.80 L 1021.30 417.20 L 1022.50 413.40 L 1023.30 409.60 L 1023.60 405.50 L 1023.40 401.70 L 1022.60 398.00 L 1021.50 394.40 L 1019.90 390.90 L 1015.50 384.50 L 1012.80 381.50 L 1006.20 376.30 L 998.60 372.00 L 994.20 370.20 Z" fill="url(#paint2_linear_926_1095)" fill-rule="evenodd" node-id="74" stroke="none" target-height="125.30002" target-width="192.29999" target-x="831.3" target-y="325.4"></path><path d="M 114.60 772.10 L 113.60 769.40 L 112.10 767.00 L 110.20 764.90 L 105.50 761.20 L 98.40 757.90 L 94.20 756.40 L 86.90 754.80 L 90.10 750.10 L 94.00 747.00 L 98.20 745.10 L 101.50 744.30 L 104.40 744.10 L 109.40 744.50 L 110.40 743.40 L 111.30 741.70 L 112.00 739.30 L 112.50 735.30 L 112.60 730.30 L 111.50 719.80 L 109.40 710.00 L 113.40 711.40 L 119.10 714.70 L 122.00 717.20 L 124.90 720.40 L 127.50 724.00 L 129.70 728.20 L 131.50 732.50 L 132.70 736.70 L 133.40 740.80 L 133.40 744.10 L 132.40 745.80 L 139.00 737.10 L 143.00 733.90 L 146.40 732.40 L 149.80 731.60 L 153.20 731.30 L 156.30 731.40 L 161.30 732.40 L 159.20 733.00 L 157.20 734.10 L 155.40 735.90 L 152.20 740.40 L 150.70 743.30 L 148.90 748.00 L 146.10 758.20 L 144.00 772.10 L 114.60 772.10 Z" fill="#ee7c76" fill-rule="nonzero" node-id="76" stroke="none" target-height="62.099976" target-width="74.4" target-x="86.9" target-y="710"></path><path d="M 842.00 827.90 L 841.10 825.50 L 839.90 823.40 L 838.30 821.40 L 835.40 818.90 L 832.10 816.80 L 828.50 815.10 L 825.00 813.80 L 818.90 812.40 L 821.60 808.10 L 823.20 806.60 L 825.80 804.80 L 828.40 803.60 L 831.10 802.90 L 833.50 802.70 L 837.60 803.10 L 838.90 802.80 L 839.80 802.10 L 840.60 800.80 L 841.20 798.50 L 841.30 791.50 L 839.40 779.30 L 837.60 772.10 L 841.10 773.30 L 845.70 776.30 L 848.20 778.50 L 850.60 781.40 L 852.10 783.90 L 853.30 787.10 L 854.70 794.00 L 855.10 800.80 L 854.80 806.60 L 862.30 796.40 L 865.70 793.60 L 868.50 792.20 L 871.40 791.50 L 874.20 791.20 L 876.80 791.30 L 880.90 792.20 L 879.20 792.70 L 877.60 793.70 L 876.00 795.30 L 874.00 798.20 L 872.10 802.00 L 870.60 806.20 L 868.30 815.40 L 866.50 827.90 L 842.00 827.90 Z" fill="#ee7c76" fill-rule="nonzero" node-id="78" stroke="none" target-height="55.80005" target-width="62" target-x="818.9" target-y="772.1"></path><path d="M 320.90 871.30 L 320.00 868.90 L 318.80 866.80 L 317.20 864.80 L 314.30 862.30 L 311.00 860.20 L 307.40 858.50 L 303.90 857.30 L 297.80 855.80 L 300.50 851.50 L 302.00 850.00 L 304.60 848.20 L 307.30 847.00 L 310.00 846.40 L 312.40 846.10 L 316.50 846.50 L 317.80 846.20 L 318.70 845.50 L 319.50 844.30 L 320.10 841.90 L 320.20 835.00 L 318.30 822.70 L 316.50 815.50 L 319.90 816.70 L 324.60 819.70 L 327.10 821.90 L 329.50 824.80 L 331.00 827.30 L 332.20 830.50 L 333.60 837.40 L 334.00 844.20 L 333.70 850.00 L 341.20 839.80 L 344.60 837.00 L 347.40 835.60 L 350.30 834.90 L 353.10 834.60 L 355.60 834.70 L 359.80 835.60 L 358.10 836.20 L 356.40 837.20 L 354.90 838.70 L 352.90 841.60 L 351.00 845.50 L 349.50 849.60 L 347.20 858.90 L 345.40 871.30 L 320.90 871.30 Z" fill="#ffa19c" fill-rule="nonzero" node-id="80" stroke="none" target-height="55.799988" target-width="62" target-x="297.8" target-y="815.5"></path><path d="M 173.70 282.00 L 0.00 318.80 L 46.50 340.90 L 173.70 282.00 Z M 63.20 340.20 L 46.50 350.20 L 49.60 393.60 L 173.70 282.00 L 63.20 340.20 Z" fill="url(#paint3_linear_926_1095)" fill-rule="evenodd" node-id="82" stroke="none" target-height="111.600006" target-width="173.7" target-x="0" target-y="282"></path><path d="M 250.30 356.40 L 767.10 356.40 L 770.80 356.70 L 774.30 357.40 L 777.60 358.50 L 780.70 360.10 L 783.60 362.00 L 786.20 364.30 L 788.50 366.90 L 790.40 369.80 L 792.00 372.90 L 793.10 376.20 L 793.80 379.70 L 794.10 383.40 L 794.10 726.40 L 793.80 730.20 L 793.10 733.60 L 792.00 737.00 L 790.40 740.10 L 788.50 742.90 L 786.20 745.50 L 783.60 747.80 L 780.70 749.70 L 777.60 751.30 L 774.30 752.50 L 770.80 753.20 L 767.10 753.40 L 250.30 753.40 L 246.60 753.20 L 243.10 752.50 L 239.80 751.30 L 236.70 749.70 L 233.80 747.80 L 231.20 745.50 L 229.00 742.90 L 227.00 740.10 L 225.50 737.00 L 224.30 733.60 L 223.60 730.20 L 223.30 726.40 L 223.30 383.40 L 223.60 379.70 L 224.30 376.20 L 225.50 372.90 L 227.00 369.80 L 229.00 366.90 L 231.20 364.30 L 233.80 362.00 L 236.70 360.10 L 239.80 358.50 L 243.10 357.40 L 246.60 356.70 L 250.30 356.40 Z" fill="url(#paint4_linear_926_1095)" fill-rule="nonzero" node-id="84" stroke="none" target-height="397.00003" target-width="570.8" target-x="223.3" target-y="356.4"></path><path d="M 535.10 570.80 L 531.10 573.60 L 526.90 576.00 L 522.50 577.80 L 518.00 579.10 L 513.40 579.90 L 508.70 580.10 L 504.00 579.90 L 499.40 579.10 L 494.90 577.80 L 490.50 576.00 L 486.30 573.60 L 482.30 570.80 L 248.10 381.20 L 769.30 381.20 L 535.10 570.80 Z" fill="url(#paint5_linear_926_1095)" fill-rule="nonzero" node-id="86" stroke="none" target-height="198.89996" target-width="521.19995" target-x="248.1" target-y="381.2"></path></svg>